<svg xmlns="http://www.w3.org/2000/svg" width="129" height="129" viewBox="-35 36 129 129"><path d="M19.6 103c15 0 27.1-12.1 27.1-27.1s-12.1-27-27.1-27S-7.6 61-7.6 75.9 4.6 103 19.6 103zm0-47.1c11 0 20 9 20 20s-9 20-20 20-20-9-20-20 9-20 20-20zm-47 89.5h94.2c2 0 3.6-1.6 3.6-3.6 0-18.7-15.2-34-34-34H3.1c-18.7 0-34 15.2-34 34 0 2 1.5 3.6 3.5 3.6zm30.5-30.5h33.3c13.6 0 24.9 10.2 26.6 23.3h-86.5c1.7-13 12.9-23.3 26.6-23.3z"/><path d="M74.9 112.3c-1.3-.5-2.5-1.4-3.4-2.5-.7-.8-1.2-1.8-1.6-2.7-1.1.2-2.7 1.1-5.1 3.3l6.9 6.9c2-2.4 2.9-3.9 3.2-5zm-41.4 36.2c2 2 23.6-16.4 34.5-27.4l1.7-1.7-7.1-7.1-1.7 1.7c-11 11-29.4 32.6-27.4 34.5zm44.8-37.4c1.5 0 3.1-.5 4.4-1.6 7.1-5.8.9-13.4 10-17.2-1.3-.9-2.9-1.3-4.5-1.3-5.5 0-12 4.1-14.6 7.3-2.8 3-3 7.3-.5 10.2 1.2 1.7 3.2 2.6 5.2 2.6z"/></svg>