<svg xmlns="http://www.w3.org/2000/svg" viewBox="0 0 512 512"><path d="M329.54 409.6h20.326c4.72 0 8.533-3.823 8.533-8.533s-3.815-8.533-8.534-8.533H162.133c-4.72 0-8.533 3.823-8.533 8.533s3.814 8.533 8.533 8.533h20.326l-45.03 90.052c-2.11 4.215-.394 9.335 3.822 11.452 1.22.606 2.526.896 3.806.896 3.132 0 6.144-1.724 7.637-4.72l48.845-97.68h45.926v93.867c0 4.71 3.814 8.533 8.533 8.533 4.718 0 8.532-3.823 8.532-8.533V409.6h45.926l48.845 97.68c1.493 2.996 4.506 4.72 7.637 4.72 1.28 0 2.586-.29 3.806-.896 4.215-2.116 5.93-7.236 3.814-11.452L329.54 409.6zM196.267 51.2h119.467c4.72 0 8.533-3.823 8.533-8.533 0-4.71-3.814-8.533-8.533-8.533h-51.2v-25.6C264.534 3.824 260.72 0 256 0c-4.72 0-8.533 3.823-8.533 8.533v25.6h-51.2c-4.72 0-8.533 3.823-8.533 8.533 0 4.71 3.814 8.534 8.533 8.534zM418.133 68.267H93.867c-23.526 0-42.667 19.14-42.667 42.667v179.2c0 4.71 3.814 8.533 8.533 8.533s8.533-3.823 8.533-8.533v-179.2c0-14.114 11.486-25.6 25.6-25.6h324.267c14.114 0 25.6 11.486 25.6 25.6V332.8c0 14.114-11.486 25.6-25.6 25.6H93.867c-12.962 0-23.69-9.677-25.378-22.178 55.747-51.157 157.806-12.928 158.856-12.518 3.584 1.382 7.603.196 9.882-2.85.23-.307 23.672-30.72 78.507-30.72 55.834 0 96.674 31.95 97.084 32.273 3.677 2.935 9.044 2.338 11.98-1.357 2.935-3.678 2.347-9.037-1.33-11.98-1.76-1.4-41.755-32.778-99.2-35.713v-18.415c15.205-3.516 25.6-16.3 25.6-33.075 0-20.02-2.46-85.333-34.134-85.333-32.495 0-34.133 71.083-34.133 85.333 0 16.776 10.394 29.56 25.6 33.075v18.364c-44.69 2.372-69.914 22.895-79.343 32.478-24.124-8.107-118.426-34.765-174.157 20.983-1.604 1.604-2.5 3.772-2.5 6.033 0 23.526 19.14 42.667 42.667 42.667h324.267c23.526 0 42.667-19.14 42.667-42.667V110.933c-.004-23.526-19.144-42.666-42.67-42.666zm-119.466 153.6c0-42.29 9.94-68.267 17.067-68.267 6.972 0 17.067 24.31 17.067 68.267 0 10.522-6.544 17.067-17.066 17.067-10.37 0-17.067-6.7-17.067-17.067z"/><path d="M128 153.6c-4.72 0-8.533 3.823-8.533 8.533 0 4.71 3.814 8.533 8.533 8.533h10.112c.29.836.614 1.647.99 2.44l-7.134 7.134c-3.337 3.337-3.337 8.738 0 12.066 1.664 1.664 3.85 2.5 6.033 2.5 2.186 0 4.37-.836 6.034-2.5l7.134-7.134c.802.375 1.604.69 2.45.99l-.01 10.112c0 4.71 3.814 8.525 8.533 8.533 4.71 0 8.534-3.814 8.534-8.525l.01-10.13c.827-.298 1.637-.613 2.422-.99l7.134 7.143c1.664 1.664 3.857 2.5 6.042 2.5s4.37-.836 6.025-2.492c3.345-3.328 3.345-8.73.017-12.066l-7.15-7.168c.374-.786.69-1.597.99-2.424l10.11.01h.01c4.71 0 8.533-3.815 8.533-8.526 0-4.72-3.814-8.542-8.525-8.542l-10.138-.01c-.3-.835-.614-1.637-.99-2.43l7.142-7.135c3.345-3.328 3.345-8.72.017-12.066-3.337-3.337-8.747-3.328-12.066-.01l-7.16 7.152c-.793-.385-1.595-.7-2.43-.99l.008-10.11c0-4.72-3.814-8.533-8.525-8.542h-.01c-4.71 0-8.532 3.814-8.532 8.533l-.01 10.113c-.835.3-1.637.614-2.43.998l-7.135-7.14c-3.337-3.338-8.738-3.33-12.066-.01-3.337 3.337-3.337 8.738 0 12.066l7.134 7.142c-.374.794-.7 1.604-.99 2.44H128zm34.133 0c4.71 0 8.533 3.83 8.533 8.533 0 4.702-3.823 8.533-8.533 8.533-4.71 0-8.533-3.83-8.533-8.533 0-4.702 3.823-8.533 8.533-8.533z"/></svg>