<svg xmlns="http://www.w3.org/2000/svg" width="200" height="200" viewBox="0 0 200 200"><path d="M184.6 79.4c2.9 2.9 2.9 7.5 0 10.4l-83.4 83.4c-13.9 13.9-29.5 21.4-44.6 21.4-4.1 0-7.5-.6-11.6-1.7-14.5-4.1-26.1-15.1-30.1-30.7-5.2-19.1 1.7-39.4 18.5-56.8l93.2-93.2c15.1-15.1 35.9-10.4 48.1 1.7 16.8 16.8 12.2 35.9.6 47.5l-93.8 93.8c-12.2 12.2-26.6 11.6-33.6 4.1-6.9-7.5-8.1-20.8 4.6-33.6l63.1-63.1c2.9-2.9 7.5-2.9 10.4 0 2.9 2.9 2.9 7.5 0 10.4l-63.7 63.1c-5.2 5.2-6.4 10.4-4.6 12.7 2.3 2.3 7.5 1.2 12.7-4.1l93.8-93.8c9.3-9.3 5.2-20.3-.6-26.6-6.9-6.9-18.5-10.4-27.2-1.7l-92.7 93.2c-13.3 13.3-18.5 28.4-15.1 42.3 2.9 9.8 9.8 17.4 19.7 20.3 12.7 3.5 27.8-2.3 41.7-16.2l83.4-83.4c3.7-2.3 8.3-2.3 11.2.6z"/></svg>