<svg xmlns="http://www.w3.org/2000/svg" width="200" height="200" viewBox="0 0 200 200"><g fill="#010002"><path d="M175.3 30.2h-24.8V19.4c0-3-2.6-5.4-5.7-5.4-3.2 0-5.7 2.4-5.7 5.4v10.7h-34.4V19.4c0-3-2.6-5.4-5.7-5.4-3.2 0-5.7 2.4-5.7 5.4v10.7H58.8V19.4c0-3-2.6-5.4-5.7-5.4s-5.7 2.4-5.7 5.4v10.7H22.5c-8.4 0-15.3 6.4-15.3 14.3v127.1c0 7.9 6.8 14.3 15.3 14.3h152.8c8.4 0 15.3-6.4 15.3-14.3v-127c0-7.9-6.8-14.3-15.3-14.3zm3.8 141.4c0 2-1.7 3.6-3.8 3.6H22.5c-2.1 0-3.8-1.6-3.8-3.6V44.5c0-2 1.7-3.6 3.8-3.6h24.8v10.7c0 3 2.6 5.4 5.7 5.4s5.7-2.4 5.7-5.4V40.9h34.4v10.7c0 3 2.6 5.4 5.7 5.4 3.2 0 5.7-2.4 5.7-5.4V40.9H139v10.7c0 3 2.6 5.4 5.7 5.4 3.2 0 5.7-2.4 5.7-5.4V40.9h24.8c2.1 0 3.8 1.6 3.8 3.6v127.1z"/><path d="M47.3 78.5h22.9v16.1H47.3zM47.3 105.4h22.9v16.1H47.3zM47.3 132.2h22.9v16.1H47.3zM87.4 132.2h22.9v16.1H87.4zM87.4 105.4h22.9v16.1H87.4zM87.4 78.5h22.9v16.1H87.4zM127.6 132.2h22.9v16.1h-22.9zM127.6 105.4h22.9v16.1h-22.9zM127.6 78.5h22.9v16.1h-22.9z"/></g></svg>