<svg id="Livello_1" xmlns="http://www.w3.org/2000/svg" width="124.2" height="78.7" viewBox="0 0 124.2 78.7"><style>.st0{fill:#f24033}</style><g id="Google_x2B__1_"><path id="XMLID_2_" class="st0" d="M41.6 30.9v14.8h20.1c-3.2 9.6-8.1 14.8-20.1 14.8-12.2 0-21.8-9.9-21.8-22.1s9.6-22.1 21.8-22.1c6.4 0 10.8 2.3 14.5 5.5 3.2-3.2 2.9-3.5 10.5-10.8-6.7-6.1-15.4-9.6-25-9.6-20.7.1-37.2 16.7-37.2 37.3 0 20.6 16.6 37.2 37.2 37.2 30.8 0 38.4-26.7 35.8-44.8l-35.8-.2z"/><path id="XMLID_1_" class="st0" d="M108.7 31.8V18.7h-9v13.1H86.3v9h13.4v13.3h9V40.8h13.1v-9z"/></g></svg>