<svg id="Livello_1" xmlns="http://www.w3.org/2000/svg" width="300" height="300" viewBox="0 0 300 300"><style>.st0{fill:#2a5b83}</style><path id="Instagram_4_" class="st0" d="M194.2 105.7h-75.8c-6.5 0-12 5.2-12 11.7v76.1c0 6.5 5.4 11.7 12 11.7h75.8c6.5 0 12-5.2 12-11.7v-76.1c-.4-6.2-5.5-11.7-12-11.7zm-16.4 15.8c0-1.6 1.4-3 3-3h9.2c1.6 0 3 1.4 3 3v9.2c0 1.6-1.4 3-3 3h-9.2c-1.6 0-3-1.4-3-3v-9.2zm-21.7 15.2c10.6 0 19.3 8.4 19.3 19s-8.7 19-19.3 19c-10.6 0-19-8.4-19-19s8.4-19 19-19zm40.5 56.3c0 1.6-1.4 3-3 3h-74.8c-1.6 0-3-1.4-3-3v-46.8h12.5c-1.6 2.4-2.2 6.8-2.2 9.5 0 16.6 13.6 30.2 30.4 30.2s30.4-13.6 30.4-30.2c0-2.7-.3-7.1-2.4-9.5H197V193h-.4z"/></svg>