<svg xmlns="http://www.w3.org/2000/svg" width="200" height="200" viewBox="0 0 200 200"><path d="M99.7 102.3c-5.2 0-9.3-4.1-9.3-9.3V13c0-5.2 4.1-9.3 9.3-9.3 5.2 0 9.3 4.1 9.3 9.3v80c0 5.2-4.1 9.3-9.3 9.3zm87.7 3.1c0-33.5-18.6-64-49-78.9-4.6-2.1-10.3-.5-12.4 4.1-2.1 4.6-.5 10.3 4.1 12.4 23.7 11.9 38.7 36.1 38.7 62.4 0 38.7-31.5 69.7-69.7 69.7s-69.7-31.5-69.7-69.7c0-26.8 15-50.6 38.7-62.9 4.6-2.1 6.7-7.7 4.1-12.4-2.1-4.6-7.7-6.7-12.4-4.1-29.9 15.5-49 45.4-49 79.5 0 49 39.2 88.2 87.7 88.2 49.7 0 88.9-39.2 88.9-88.3z"/></svg>