<svg xmlns="http://www.w3.org/2000/svg" width="200" height="200" viewBox="0 0 200 200"><path d="M102 79.7c.4 1.6 1.8 2.6 3.4 2.6.3 0 .6 0 .9-.1l15-4.1c1.9-.5 3-2.4 2.5-4.3s-2.4-3-4.3-2.5l-15 4.1c-1.9.5-3 2.4-2.5 4.3zM47.4 98.5l10.4 3.5c.4.1.7.2 1.1.2 1.5 0 2.8-.9 3.3-2.4.6-1.8-.4-3.8-2.2-4.4l-10.4-3.5c-1.8-.6-3.8.4-4.4 2.2-.6 1.8.3 3.8 2.2 4.4zM85.2 92.3h.2c1.8 0 3.4-1.4 3.5-3.3l.3-4.9c.1-1.9-1.3-3.6-3.3-3.7-2-.1-3.6 1.4-3.7 3.3l-.2 5c-.1 1.9 1.3 3.5 3.2 3.6zM147 107.3c.7.7 1.6 1 2.5 1 .9 0 1.8-.3 2.5-1 1.4-1.4 1.4-3.6 0-4.9l-3.5-3.5c-1.4-1.4-3.6-1.4-4.9 0s-1.4 3.6 0 4.9l3.4 3.5zM115.3 98.9c-1.4-1.4-3.6-1.4-4.9 0s-1.4 3.6 0 4.9l3.5 3.5c.7.7 1.6 1 2.5 1s1.8-.3 2.5-1c1.4-1.4 1.4-3.6 0-4.9l-3.6-3.5zM103.6 45.4c.4 1.6 1.8 2.6 3.4 2.6.3 0 .6 0 .8-.1 1.9-.5 3-2.4 2.5-4.2l-3.5-13.9c-.5-1.9-2.4-3-4.2-2.5-1.9.5-3 2.4-2.5 4.2l3.5 13.9zM87.8 66.3c.7.7 1.6 1 2.5 1 .9 0 1.8-.3 2.5-1 1.4-1.4 1.4-3.6 0-4.9l-3.5-3.5c-1.4-1.4-3.6-1.4-4.9 0-1.4 1.4-1.4 3.6 0 4.9l3.4 3.5z"/><path d="M190.2 120c-2.8-2.8-6-4.8-9.5-6.1 0-.7.1-1.4.1-2 0-15.8-10.4-29.2-25.2-33.4.6-2.1.8-4.4.8-6.6 0-14-11.1-25.5-25.1-26.1.3-1.6.4-3.3.4-4.9 0-17.2-12.2-31.3-27.3-31.3h-4c-15 0-27.3 14-27.3 31.3 0 1.6.1 3.3.4 4.9-14 .5-25.2 12-25.2 26.1 0 2 .2 3.9.7 5.8-16.3 3-28.5 17.2-28.5 34.2 0 .7 0 1.3.1 2-3.5 1.4-6.7 3.4-9.5 6.1l-1.9 1.8 33.4 61.4c2.1 5.2 7.2 8.7 12.9 8.7h90.2c5.6 0 10.8-3.5 12.9-8.7l33.4-61.4-1.8-1.8zm-162.6-8v-.2c0-14.8 11.6-27 26.3-27.8 1.1-.1 2.2-.7 2.8-1.6.6-1 .7-2.2.3-3.2-1-2.4-1.5-4.9-1.5-7.4 0-10.6 8.6-19.2 19.2-19.2.4 0 1.3 0 3.1.4 1.2.2 2.5-.3 3.3-1.2.8-1 1-2.3.6-3.4-.9-2.5-1.4-5-1.4-7.6 0-13.4 9.1-24.3 20.3-24.3h4c11.2 0 20.3 10.9 20.3 24.3 0 2.6-.5 5.1-1.4 7.6-.4 1.2-.2 2.5.6 3.4.8 1 2.1 1.4 3.3 1.2 1.6-.3 2.5-.4 2.9-.4 10.6 0 19.2 8.6 19.2 19.2 0 2.7-.6 5.3-1.6 7.7-.4 1-.4 2.1.1 3.1.5.9 1.4 1.6 2.5 1.8 13.6 2.2 23.4 13.7 23.4 27.5v.2c-.3 0-.6 0-.9-.1-.5 0-1-.1-1.4-.1h-2.7c-.3 0-.7 0-1 .1-.6.1-1.2.1-1.7.2-.3 0-.6.1-.9.1-.6.1-1.3.3-1.9.4-.2.1-.5.1-.7.2-.7.2-1.3.4-2 .6-.2.1-.4.1-.6.2-.7.3-1.4.6-2 .9-.1.1-.3.1-.4.2l-2.1 1.2c-.1.1-.2.1-.3.2-.8.5-1.5 1-2.3 1.6-.7-.5-1.4-.9-2.1-1.4-9.9-6.5-23.1-6.1-32.6 1.4-10.1-8-24.5-8-34.7 0-10.2-8-24.8-8-35 0-1.2-.9-2.5-1.7-3.8-2.5-.1 0-.2-.1-.3-.2-1.3-.7-2.6-1.2-3.9-1.7-.2-.1-.3-.1-.5-.2-1.3-.4-2.6-.8-4-1-.2 0-.5-.1-.7-.1-1.3-.2-2.6-.3-4-.3h-1c-.7 0-1.5.1-2.2.1-.2.1-.4.1-.6.1zm124.8 68.1l-.2.4c-1 2.7-3.6 4.4-6.5 4.4H55.6c-2.8 0-5.4-1.8-6.5-4.4L18 123.2c3.1-2.4 6.7-3.8 10.4-4.2.3 0 .5 0 .8-.1.9-.1 1.8-.1 2.6-.1.4 0 .7 0 1.1.1.9.1 1.7.2 2.5.4.3.1.6.1.9.2 1.1.3 2.1.6 3.1 1 .3.1.6.3.9.4.8.4 1.5.8 2.2 1.2l.9.6c.9.7 1.8 1.4 2.7 2.2l2.4 2.4 2.4-2.4c.5-.5 1.1-.9 1.6-1.3 8.4-6.8 20.7-6.4 28.5 1.3l2.5 2.4 2.4-2.4c4-4 9.2-6 14.4-6.1h.5c.2 0 .4 0 .5.1 3.9.1 7.7 1.2 11 3.4 1.2.8 2.3 1.7 3.3 2.7l2.5 2.4 2.5-2.4c1-1 2.1-1.9 3.3-2.7 8.2-5.4 19.3-4.5 26.4 2.7l2.5 2.4 2.5-2.4c.8-.8 1.8-1.6 2.7-2.2l.9-.6c.7-.5 1.5-.9 2.2-1.2.3-.1.6-.3.9-.4 1-.4 2-.8 3.1-1 .3-.1.6-.1.9-.2.8-.2 1.6-.3 2.5-.4.4 0 .7-.1 1.1-.1.9 0 1.7 0 2.6.1.3 0 .5 0 .8.1 3.7.5 7.2 1.9 10.3 4.2l-30.9 56.8z"/><path d="M55.3 135.3c-.5-1.9-2.4-3-4.3-2.4-1.9.5-2.9 2.4-2.4 4.3L59 175.4c.4 1.5 1.8 2.6 3.4 2.6.3 0 .6 0 .9-.1 1.9-.5 2.9-2.4 2.4-4.3l-10.4-38.3zM150.4 132.8c-1.9-.5-3.8.6-4.3 2.4l-10.4 38.3c-.5 1.9.6 3.8 2.4 4.3.3.1.6.1.9.1 1.5 0 2.9-1 3.4-2.6l10.4-38.3c.5-1.8-.6-3.7-2.4-4.2zM118.4 132.7c-1.9-.2-3.6 1.2-3.8 3.2l-3.5 38.3c-.2 1.9 1.2 3.6 3.2 3.8h.3c1.8 0 3.3-1.4 3.5-3.2l3.5-38.3c.1-1.9-1.3-3.6-3.2-3.8zM83 132.7c-1.9.2-3.3 1.9-3.2 3.8l3.5 38.3c.2 1.8 1.7 3.2 3.5 3.2h.3c1.9-.2 3.3-1.9 3.2-3.8l-3.5-38.3c-.2-1.9-1.9-3.3-3.8-3.2z"/></svg>