<svg xmlns="http://www.w3.org/2000/svg" width="200" height="200" viewBox="0 0 200 200"><path d="M164.7 66.4l-6.5 117.4c0 4.3-3.8 7.5-8.1 7.5H47.3c-4.3 0-8.1-3.2-8.1-7.5L32.8 66.4c0-4.3 3.2-8.1 7.5-8.6 4.3 0 8.1 3.2 8.6 7.5l5.9 109.3H142l6-109.3c0-4.3 4.3-8.1 8.6-7.5 4.8.5 8.1 4.3 8.1 8.6zm21.5-26.9c0 4.3-3.8 8.1-8.1 8.1H19.8c-4.3 0-8.1-3.8-8.1-8.1s3.8-8.1 8.1-8.1h44.7V13.1c0-3.8 2.7-5.9 6.5-5.9h56c3.8 0 6.5 2.2 6.5 5.9v18.3h44.7c4.2 0 8 3.8 8 8.1zM78.5 31.4h40.4V21.2H78.5v10.2zm3.3 131.9c4.3 0 7-3.8 7-7.5L86.6 68c0-3.8-3.2-7-7.5-7-3.8 0-7 3.2-7 7.5l2.2 87.8c.5 3.2 3.7 7 7.5 7zm33.9 0c3.8 0 7-3.2 7-7l2.2-87.8c0-3.8-3.2-7.5-7-7.5-4.3 0-7 3.2-7.5 7l-2.2 87.8c-.1 3.7 3.2 7.5 7.5 7.5-.6 0-.6 0 0 0z"/></svg>