<svg id="Livello_1" xmlns="http://www.w3.org/2000/svg" width="129" height="129" viewBox="-415 216 129 129"><style>.st0{fill:#FFFFFF;}</style><path d="M-409 322.9c.4-2 .6-4.1 1.2-6.1 4.4-14.1 13.9-22.4 28.4-24.9 1.8-.3 3.6-.4 5.4-.4h28.2c.6 0 1.2-.2 1.7-.6 3.5-2.5 7.4-3.8 11.7-3.8 6.8 0 13.7-.1 20.5 0 10.1.1 18.3 7.4 19.8 17.4 0 .2.1.4.2.6v2.7c-.6 1.1-1.5 1.5-2.7 1.5-3.9-.1-7.8 0-11.8 0h-3.4v.3c.1.3.2.5.4.7 2.3 4.5 3.5 9.4 3.8 14.5.1 2.2-.6 3.8-2.7 4.7h-97.8c-1.3-.5-2.2-1.4-2.7-2.7-.2-1.4-.2-2.7-.2-3.9zm7.6-.9h88.1c-.1-.5-.1-.9-.2-1.3-2.6-12.8-13.4-21.9-26.4-22-11.6-.1-23.2-.1-34.9 0-7.6.1-14 3-19.3 8.4-4 4.1-6.5 9.1-7.3 14.9zm104.9-17.1v-.4c-1-7-7.4-12.9-14.6-13.2-7.4-.2-14.8-.1-22.3 0-.7 0-1.4.2-2.1.3 9 1.7 16.3 5.8 22.1 12.8.3.4.9.6 1.4.6h14.5c.3-.1.6-.1 1-.1z"/><path d="M-355.1 232.1c2.1.5 4.2.7 6.3 1.4 9.7 3.3 15.8 10 18.3 20 .1.3.1.5.2.8 9.2-4.8 18.8-.5 22.5 6.8 3.7 7.3 1.2 16.2-5.8 20.6-6.9 4.3-16.9 3.2-22.5-5.1-.3.3-.6.7-.9 1-14.4 15.6-40.2 10.2-46.9-9.9-5-15.2 4.6-31.6 20.4-34.9l3.6-.6c1.6-.1 3.2-.1 4.8-.1zm-2.4 47.3c11.2 0 20.4-9.1 20.3-20.2 0-11-9.3-20.1-20.4-20-11.2.1-20.3 9.2-20.3 20.2.1 11.1 9.2 20.1 20.4 20zm35.2-22.9c-2.5 0-5 .8-6.9 2.3-.3.3-.6.8-.7 1.2-.2 4.2-1.2 8.1-3 11.8-.2.4-.2 1.2 0 1.6 2.5 5.2 8.7 7.8 14.2 6 5.6-1.8 9.1-7.3 8.1-13.1-.9-5.6-5.9-9.8-11.7-9.8z"/><path class="st0" d="M-409 326.6c.5 1.3 1.4 2.2 2.7 2.7h-2.7v-2.7z"/></svg>