<svg xmlns="http://www.w3.org/2000/svg" width="200" height="200" viewBox="0 0 200 200"><path d="M98.7 4.1C47 4.1 4.6 46 4.6 98.3c0 51.8 41.8 94.2 94.2 94.2s93.6-42.4 93.6-94.7c0-51.8-41.9-93.7-93.7-93.7zm7.2 171.3h-1.7v-44.6c10.5 0 20.4-.6 29.2-1.1-7.7 24.2-22 40.2-27.5 45.7zm-14.9 0c-5.5-5.5-19.8-21.5-27.5-45.1 8.8.6 18.2 1.1 29.2 1.1V176c-.6-.6-1.1-.6-1.7-.6zM21.1 97.7c0-5 .6-10.5 1.7-14.9 4.4-.6 13.2-2.2 25.3-3.3-1.1 6.1-1.7 12.1-1.7 18.7s.6 12.7 1.7 18.2c-12.1-1.1-20.4-2.2-25.3-3.3-1.1-4.9-1.7-9.9-1.7-15.4zm37.5 0c0-7.2.6-13.2 2.2-19.8 9.4-.6 19.8-1.1 31.9-1.1v41.8c-12.1 0-22.6-.6-32.5-1.7-1.1-5.4-1.6-12-1.6-19.2zm47.3-77c5.5 5.5 19.8 22 27.5 45.1-8.8-.6-18.2-1.1-28.6-1.1V20.1c.6.6.6.6 1.1.6zm-13.2 0v44.6c-10.5 0-20.4.6-28.6 1.1 7.7-23.1 22-39.6 27.5-45.1 0-.6.5-.6 1.1-.6zm12.1 98V76.8c12.1 0 22.6.6 31.9 1.1 1.1 6.1 2.2 12.7 2.2 19.8 0 7.2-.6 13.2-1.7 19.8-9.8.6-20.3 1.2-32.4 1.2zm44.6-39.1c12.1 1.1 20.4 2.2 25.3 3.3 1.1 5 1.7 9.9 1.7 14.9s-.6 10.5-1.7 14.9c-4.4.6-13.2 2.2-25.3 3.3 1.1-6.1 1.7-12.1 1.7-18.7 0-5.6-.6-12.2-1.7-17.7zm21.5-9.9c-5.5-.6-13.8-1.7-24.2-2.8-5-17.6-13.2-31.9-20.4-41.8 20.4 7.7 36.9 24.2 44.6 44.6zM71.2 25.1C64 35 55.2 48.8 50.8 66.4c-10.5.6-18.2 2.2-24.2 2.8 7.7-19.9 24.2-36.4 44.6-44.1zM26.1 126.4c5.5.6 13.8 1.7 24.2 2.8 5 17.6 13.2 31.9 20.4 41.3-20.4-7.8-36.4-24.3-44.6-44.1zm100.2 44c7.2-9.9 15.4-23.7 20.4-41.3 10.5-.6 18.2-2.2 24.2-2.8-7.7 19.9-24.2 36.4-44.6 44.1z"/></svg>