<svg xmlns="http://www.w3.org/2000/svg" width="50" height="130" viewBox="0 0 50 130"><path d="M15.9 125.7c-1.8 0-3.6-.7-4.7-1.8-2.2-1.8-3.2-4.7-2.5-7.5l10.8-54.6-5.8 3.2c-3.6 1.8-8.3.7-10.4-2.9-1.8-3.6-.7-8.3 2.9-10.4l20.5-11.5c2.5-1.4 5.7-1.4 8.3.4 2.5 1.8 3.6 4.7 3.2 7.5L27 104.8l9.3-4c4-1.8 8.3 0 10.1 4 1.8 4 0 8.3-4 10.1l-22.6 9.7c-1.8.7-2.8 1.1-3.9 1.1zM37.4 21.1c1.8-1.8 3.2-4.7 3.2-7.5 0-2.9-1.1-5.7-3.2-7.5-1.8-1.8-4.7-3.2-7.5-3.2s-5.7 1-7.5 3.1c-1.8 1.8-3.2 4.7-3.2 7.5 0 2.9 1.1 5.7 3.2 7.5 1.8 1.8 4.7 3.2 7.5 3.2 2.9.2 5.7-.9 7.5-3.1z"/></svg>