<svg id="Livello_1" xmlns="http://www.w3.org/2000/svg" width="300" height="300" viewBox="0 0 300 300"><style>.st0{fill:#187fb8}</style><g id="LinkedIn_4_"><path id="XMLID_3_" class="st0" d="M87 125.6h24.6v78H87z"/><path id="XMLID_2_" class="st0" d="M178.6 124.9c-14 0-22.9 7.5-24.6 13v-12.3h-27.7c.3 6.5 0 78 0 78H154v-42.1c0-2.4 0-4.8.7-6.5 2.1-4.8 5.8-9.6 13.3-9.6 9.6 0 14 7.2 14 17.8v40.4h28v-43.4c-.2-24-13.9-35.3-31.4-35.3z"/><path id="XMLID_1_" class="st0" d="M98.6 89c-9.2 0-15 5.8-15 13.7 0 7.5 5.8 13.3 14.7 13.3h.3c9.2 0 15-5.8 15-13.7-.3-7.5-5.8-13.3-15-13.3z"/></g></svg>