<svg xmlns="http://www.w3.org/2000/svg" width="200" height="200" viewBox="0 0 200 200"><g fill="#1D1D1B"><path d="M47.6 32.2h138.7c3.4 0 6.2-2.8 6.2-6.2 0-3.4-2.8-6.2-6.2-6.2H47.6c-3.4 0-6.2 2.8-6.2 6.2 0 3.4 2.8 6.2 6.2 6.2zM186.2 92.1H47.6c-3.4 0-6.2 2.8-6.2 6.2s2.8 6.2 6.2 6.2h138.7c3.4 0 6.2-2.8 6.2-6.2s-2.8-6.2-6.3-6.2zM186.2 164.5H47.6c-3.4 0-6.2 2.8-6.2 6.2 0 3.4 2.8 6.2 6.2 6.2h138.7c3.4 0 6.2-2.8 6.2-6.2-.1-3.5-2.8-6.2-6.3-6.2zM15.9 39c7.3 0 13.2-5.9 13.2-13.2 0-7.3-5.9-13.2-13.2-13.2-7.3 0-13.2 5.9-13.2 13.2C2.6 33 8.5 39 15.9 39zM15.9 111.1c7.3 0 13.2-5.9 13.2-13.2 0-7.3-5.9-13.2-13.2-13.2-7.3 0-13.2 5.9-13.2 13.2-.1 7.3 5.8 13.2 13.2 13.2zM15.9 157.4c-7.3 0-13.2 5.9-13.2 13.2 0 7.3 5.9 13.2 13.2 13.2 7.3 0 13.2-5.9 13.2-13.2 0-7.3-6-13.2-13.2-13.2z"/></g></svg>