<svg xmlns="http://www.w3.org/2000/svg" width="200" height="200" viewBox="0 0 200 200"><path d="M179.8 22.1L165.5 7.3c-1.4-1.4-2.8-1.8-4.6-1.8-1.8 0-3.2.5-4.1 1.8L72.5 93c-.5.5-.9 1.4-1.4 1.8l-9.7 24c-.9 2.3-.5 5.1 1.4 6.4 1.4 1.4 2.8 1.8 4.1 1.8.9 0 1.4 0 2.3-.5l24-9.7c.9-.5 1.4-.9 1.8-1.4l84.3-85.7c3.3-1.6 3.3-5.3.5-7.6zm-92.1 84.7l-9.7 3.7 3.7-9.7 79.2-80.6 6 6-79.2 80.6zm61.7-7.3V181c0 4.6-4.1 8.3-8.3 8.3H26.4c-4.6 0-8.3-3.7-8.3-8.3V27.1c0-4.6 3.7-7.8 8.3-7.8h83.8c4.6 0 8.3 3.7 8.3 8.3s-3.7 8.3-8.3 8.3h-76v137.3h99V99.9c0-4.6 3.7-8.3 8.3-8.3s7.9 3.2 7.9 7.9z"/></svg>