<svg xmlns="http://www.w3.org/2000/svg" width="394.4" height="394.4" viewBox="0 0 394.4 394.4"><path d="M37.4 377.4c-5.223 0-10.438-1.992-14.423-5.977-7.97-7.963-7.97-20.883 0-28.846l319.6-319.6c7.97-7.97 20.876-7.97 28.846 0 7.97 7.96 7.97 20.88 0 28.844l-319.6 319.602c-3.985 3.986-9.2 5.978-14.423 5.978zm357-78.2c0-52.497-42.704-95.2-95.2-95.2S204 246.703 204 299.2s42.704 95.2 95.2 95.2 95.2-42.705 95.2-95.2zm-40.8 0c0 29.995-24.404 54.4-54.4 54.4s-54.4-24.405-54.4-54.4c0-29.995 24.406-54.4 54.4-54.4s54.4 24.405 54.4 54.4zm-163.2-204C190.4 42.704 147.696 0 95.2 0S0 42.704 0 95.2s42.704 95.2 95.2 95.2 95.2-42.704 95.2-95.2zm-40.8 0c0 29.995-24.405 54.4-54.4 54.4s-54.4-24.405-54.4-54.4 24.405-54.4 54.4-54.4 54.4 24.406 54.4 54.4z"/></svg>