<svg xmlns="http://www.w3.org/2000/svg" width="200" height="200" viewBox="0 0 200 200"><path d="M98.3 139.9c-22.5 0-40.5-18-40.5-40.5s18-40.5 40.5-40.5 40.5 18 40.5 40.5c.5 22-18 40.5-40.5 40.5zm0-66.6c-13.9 0-25.6 11.7-25.6 25.6s11.7 25.6 25.6 25.6S124 112.9 124 98.9c0-13.9-11.3-25.6-25.7-25.6zm0 122.8h-.9c-7.2 0-13.5-.9-13.9-.9-3.1-.4-5.8-3.1-6.7-6.3l-2.2-15.3c-4.5-1.3-9-3.1-13.5-5.8l-11.7 9c-2.7 2.2-6.3 1.8-9 0 0 0-5.4-4-10.3-9.4l-.9-.9c-5.4-5.4-9-10.3-9.4-10.3-2.2-2.7-2.2-6.3 0-9l9.4-12.1c-2.2-4-4-9-5.4-13.5L9 119.4c-3.1-.4-5.8-3.1-6.3-6.7 0 0-.9-6.7-.9-13.9v-.9c0-7.2.9-13.5.9-13.9.4-3.1 3.1-5.8 6.3-6.7l15.3-2.2c1.3-4.5 3.1-9 5.8-13.5l-9-11.7c-2.2-2.7-1.8-6.3 0-9 0 0 4-5.4 9.4-10.3l.9-.9c5.4-5.4 10.3-9 10.3-9.4 2.7-2.2 6.3-2.2 9 0l12.1 9.4c4-2.2 9-4 13.5-5.4L78.5 9c.4-3.1 3.1-5.8 6.7-6.3 0 0 6.7-.9 13.9-.9h.9c7.2 0 13.5.9 13.9.9 3.1.4 5.8 3.1 6.7 6.3l2.2 15.3c4.5 1.3 9 3.1 13.5 5.8l11.7-9c2.7-2.2 6.3-1.8 9 0 0 0 5.4 4 10.3 9.4l.9.9c5.4 5.4 9 10.3 9.4 10.3 2.2 2.7 2.2 6.3 0 9l-9 12.1c2.2 4 4 9 5.4 13.5l14.8 2.2c3.1.4 5.8 3.1 6.3 6.7 0 0 .9 6.7.9 13.9v.9c0 7.2-.9 13.5-.9 13.9-.4 3.1-3.1 5.8-6.3 6.7l-15.3 2.2c-1.3 4.5-3.1 9-5.8 13.5l9 12.1c2.2 2.7 1.8 6.3 0 9 0 0-4 5.4-9.4 10.3l-.9.9c-5.4 5.4-10.3 9-10.3 9.4-2.7 2.2-6.3 2.2-9 0l-12.1-9.4c-4 2.2-9 4-13.5 5.4l-2.2 14.8c-.4 3.1-3.1 5.8-6.7 6.3-.3.1-6.6 1-14.3 1zm-7.6-15.3H105l1.8-13.9c.4-3.1 2.7-5.4 5.8-6.3 6.7-1.3 13-4 18.4-7.6 1.8-.9 3.6-1.3 5.8-.9.9 0 2.2.9 3.1 1.3l11.2 8.5c1.3-1.3 3.1-2.7 4.9-4.5l.9-.9c1.8-1.8 3.1-3.1 4.5-4.9l-8.5-11.2c-1.8-2.7-1.8-5.8-.4-8.5 3.6-5.4 6.3-11.7 7.6-18 .4-3.1 3.1-5.8 6.3-6.3l13.9-1.8V91.3l-13.9-1.8c-3.1-.4-5.4-2.7-6.3-5.8-1.3-6.7-4-12.6-7.2-18.4-.4-.4-.4-.9-.9-1.8-.9-2.2-.4-4.9.9-6.7l8.5-11.2c-1.3-1.3-2.7-3.1-4.5-4.9l-.9-.9c-1.8-1.8-3.1-3.1-4.9-4.5l-11.2 8.5c-2.7 1.8-6.3 1.8-9 0-5.4-3.1-11.7-5.8-18-7.6-3.1-.4-5.4-3.1-5.8-6.3L105.3 16H91l-1.8 14.4c-.4 3.1-3.1 5.8-6.3 6.3-6.3 1.3-12.6 4-18 7.2-1.8.9-3.6 1.3-5.8.9-.9 0-2.2-.9-3.1-1.3L45.2 35c-1.3 1.3-3.1 2.7-4.9 4.5l-.9.5c-1.8 1.8-3.1 3.1-4.5 4.9l8.5 11.2c1.8 2.7 1.8 5.8.4 8.5 0 0 0 .4-.4.4-3.1 5.4-5.8 11.7-7.2 18-.4 3.1-3.1 5.4-6.3 5.8l-13.9 2v14.3l14 1.9c3.1.4 5.8 3.1 6.3 6.3 1.3 6.3 4 12.1 7.2 17.5.9 1.8 1.3 4 .4 6.3 0 .9-.9 1.8-1.3 2.7l-8.1 10.8c1.3 1.3 2.7 3.1 4.5 4.9l.9.9c1.8 1.8 3.1 3.1 4.9 4.5l11.2-8.5c2.7-2.2 6.7-1.8 9.4 0 5.4 3.1 11.2 5.8 17.5 7.2 3.1.4 5.4 3.1 5.8 6.3l2 14.9z"/></svg>