<svg id="Livello_1" xmlns="http://www.w3.org/2000/svg" width="300" height="300" viewBox="0 0 300 300"><style>.st0{fill:#24a9e6}</style><path id="Twitter_4_" class="st0" d="M195.5 108.7c-3.9 2.4-8.1 4.2-12.9 5-3.7-3.9-8.9-6.6-14.7-6.6-11 0-20.2 9.2-20.2 20.7 0 1.6.3 3.2.5 4.7-16.8-.8-31.5-9.2-41.5-21.5-1.8 3.2-2.6 6.6-2.6 10.5 0 7.1 3.7 13.4 8.9 17.3-3.4 0-6.3-1.1-9.2-2.6v.3c0 10 6.8 18.4 16.3 20.2-1.6.5-3.4.8-5.3.8-1.3 0-2.6 0-3.7-.3 2.6 8.1 10 14.2 18.9 14.4-6.8 5.5-15.5 8.9-24.9 8.9-1.6 0-3.2 0-4.7-.3 8.9 5.8 19.4 9.2 31 9.2 37 0 57.5-31.5 57.5-58.8V128c3.9-2.9 7.4-6.6 10-10.8-3.7 1.6-7.6 2.9-11.6 3.2 3.5-2.8 6.6-6.7 8.2-11.7z"/></svg>