<?xml version="1.0" encoding="utf-8"?>
<!-- Generator: Adobe Illustrator 19.0.0, SVG Export Plug-In . SVG Version: 6.00 Build 0)  -->
<svg version="1.1" id="Livello_1" xmlns="http://www.w3.org/2000/svg" xmlns:xlink="http://www.w3.org/1999/xlink" x="0px" y="0px"
	 viewBox="-55 247 500 300" style="enable-background:new -55 247 500 300;" xml:space="preserve">
<style type="text/css">
	.st0{fill:none;stroke:#000000;stroke-width:2;stroke-miterlimit:10;}
	.st1{fill:none;stroke:#160C0C;stroke-width:2;stroke-miterlimit:10;}
</style>
<g id="XMLID_16_">
	<line id="XMLID_18_" class="st0" x1="142.5" y1="300.8" x2="159.7" y2="283.6"/>
	<line id="XMLID_17_" class="st0" x1="159.7" y1="300.8" x2="142.5" y2="283.6"/>
</g>
<g id="XMLID_13_">
	<line id="XMLID_15_" class="st0" x1="194.8" y1="304.3" x2="194.8" y2="280"/>
	<line id="XMLID_14_" class="st0" x1="207" y1="292.3" x2="182.6" y2="292.3"/>
</g>
<line id="XMLID_12_" class="st0" x1="250.6" y1="292.1" x2="226.2" y2="292.1"/>
<polyline id="XMLID_11_" class="st0" points="297.3,282.4 277.5,302 266.9,291.4 "/>
<g id="XMLID_9_">
	<polyline id="XMLID_10_" class="st0" points="331.9,304.3 319.7,292.1 331.9,280 	"/>
</g>
<polyline id="XMLID_8_" class="st0" points="363.4,280.1 375.4,292.1 363.4,304.4 "/>
<path id="XMLID_25_" class="st1" d="M-6.7,331.3c3,3.1,4.9,7.8,4.9,12.9s-1.9,9.8-4.9,12.9"/>
<path id="XMLID_24_" class="st1" d="M-10.5,334.9c2.3,2.1,3.6,5.5,3.6,9.4s-1.4,7.1-3.6,9.4"/>
<path id="XMLID_23_" class="st1" d="M-14.3,338.4c1.5,1.3,2.5,3.4,2.5,5.8s-1,4.5-2.5,5.8"/>
<polygon id="XMLID_22_" class="st1" points="-31,337.6 -36.3,337.6 -36.3,350.6 -31,350.6 -21.2,358 -21.2,330.4 "/>
<polyline id="XMLID_21_" class="st1" points="39.3,348.5 45.3,342.4 39.3,336.4 "/>
<polyline id="XMLID_20_" class="st1" points="51.3,336.4 45.3,342.4 51.3,348.5 "/>
<polygon id="XMLID_19_" class="st1" points="22.2,336.6 16.9,336.6 16.9,349.6 22.2,349.6 31.9,357 31.9,329.4 "/>
<g id="XMLID_26_">
	<g id="XMLID_28_">
		<polyline id="XMLID_29_" class="st0" points="255.9,353.6 229.2,353.6 229.2,327.1 		"/>
	</g>
	<polyline id="XMLID_27_" class="st0" points="221.7,334.8 248.4,334.8 248.4,361.3 	"/>
</g>
<g id="XMLID_30_">
	<g id="XMLID_34_">
		<polyline id="XMLID_36_" class="st0" points="119,347.3 129.2,347.3 129.2,357.6 		"/>
		<line id="XMLID_35_" class="st0" x1="129.2" y1="347.3" x2="119.5" y2="357.1"/>
	</g>
	<g id="XMLID_31_">
		<polyline id="XMLID_33_" class="st0" points="144.3,342.6 133.9,342.6 133.9,332.1 		"/>
		<line id="XMLID_32_" class="st0" x1="134" y1="342.6" x2="143.8" y2="332.6"/>
	</g>
</g>
<g>
	<g>
		<polyline class="st0" points="88.3,356.5 78.1,356.5 78.1,346.1 		"/>
		<line class="st0" x1="78.1" y1="356.5" x2="87.8" y2="346.6"/>
	</g>
	<g>
		<polyline class="st0" points="90.3,333.4 100.7,333.4 100.7,343.6 		"/>
		<line class="st0" x1="100.7" y1="333.4" x2="90.8" y2="343.1"/>
	</g>
</g>
<g>
	<path d="M417.9,399.9c0-8.9-7.2-16.1-16.1-16.1s-16.1,7.2-16.1,16.1c0,6.1,3.4,11.3,8.3,14.1l-3.6,3.6c-0.5,0.5-0.5,1.3,0,1.8
		c0.2,0.2,0.6,0.4,0.9,0.4s0.6-0.1,0.9-0.4l4.3-4.3c1.7,0.6,3.5,0.9,5.4,0.9s3.7-0.3,5.4-0.9l4.3,4.3c0.2,0.2,0.6,0.4,0.9,0.4
		s0.6-0.1,0.9-0.4c0.5-0.5,0.5-1.3,0-1.8l-3.6-3.6C414.5,411.3,417.9,406,417.9,399.9z M407.4,412.3c-0.3,0-0.7,0.1-1,0.4
		c0,0,0,0,0,0.1c-1.5,0.5-3,0.8-4.7,0.8c-1.6,0-3.2-0.3-4.7-0.8c0,0,0,0,0-0.1c-0.3-0.3-0.6-0.4-1-0.4c-4.7-2.2-8-6.9-8-12.4
		c0-7.5,6.1-13.6,13.6-13.6s13.6,6.1,13.6,13.6C415.4,405.4,412.1,410.1,407.4,412.3z"/>
	<path d="M407.3,401.3l-4.3-2.1v-6.7c0-0.7-0.6-1.2-1.2-1.2s-1.2,0.6-1.2,1.2v7.4c0,0.5,0.3,0.9,0.7,1.1l5,2.5
		c0.2,0.1,0.4,0.1,0.6,0.1c0.5,0,0.9-0.3,1.1-0.7C408.1,402.3,407.9,401.6,407.3,401.3z"/>
	<path d="M393,382.1c-0.1-0.4-0.5-0.8-0.9-0.9l-6.2-1.2c-0.4-0.1-0.8,0-1.1,0.3l-2.5,2.5c-0.3,0.3-0.4,0.7-0.3,1.1l1.2,6.2
		c0.1,0.4,0.4,0.8,0.9,0.9c0.1,0,0.2,0.1,0.4,0.1c0.3,0,0.6-0.1,0.9-0.4l7.4-7.4C393.1,383.1,393.2,382.6,393,382.1z M385.2,387.5
		l-0.7-3.3l1.5-1.5l3.3,0.7L385.2,387.5z"/>
	<path d="M419.1,391.1c0.1,0,0.2,0,0.4-0.1c0.4-0.1,0.8-0.5,0.9-0.9l1.2-6.2c0.1-0.4,0-0.8-0.3-1.1l-2.5-2.5
		c-0.3-0.3-0.7-0.4-1.1-0.3l-6.2,1.2c-0.4,0.1-0.8,0.4-0.9,0.9c-0.1,0.4,0,0.9,0.3,1.2l7.4,7.4C418.5,391.1,418.8,391.1,419.1,391.1
		z M417.5,382.6l1.5,1.5l-0.7,3.3l-4.2-4.2L417.5,382.6z"/>
</g>
<g>
	<path d="M43.5,393.8c-0.8,0-1.5,0.7-1.5,1.5V416l-3.5-3.5c-0.6-0.6-1.6-0.6-2.2,0c-0.6,0.6-0.6,1.6,0,2.2l6.1,6.1
		c0.3,0.3,0.7,0.4,1.1,0.4s0.8-0.1,1.1-0.4l6.1-6.1c0.6-0.6,0.6-1.6,0-2.2s-1.6-0.6-2.2,0L45,416v-20.8
		C45,394.5,44.3,393.8,43.5,393.8z"/>
	<path d="M61.8,393.9c-0.7-8.7-8-15.5-16.8-15.5c-7.8,0-14.6,5.1-16.6,12.3h-0.3c-5.1,0-9.2,4.1-9.2,9.2s4.1,9.2,9.2,9.2h9.2
		c0.8,0,1.5-0.7,1.5-1.5s-0.7-1.5-1.5-1.5h-9.2c-3.4,0-6.1-2.8-6.1-6.1c0-3.4,2.8-6.1,6.1-6.1h1.5c0.7,0,1.4-0.5,1.5-1.2
		c1.2-6.4,7-11,13.8-11c7.6,0,13.8,6.2,13.8,13.8c0,0.8,0.7,1.5,1.5,1.5c2.5,0,4.6,2.1,4.6,4.6s-2.1,4.6-4.6,4.6H49.6
		c-0.8,0-1.5,0.7-1.5,1.5s0.7,1.5,1.5,1.5h10.7c4.2,0,7.7-3.4,7.7-7.7C68,397.6,65.4,394.6,61.8,393.9z"/>
</g>
<g>
	<path d="M421.2,331.6h-33.1c-0.6,0-1.1,0.5-1.1,1.1v19.8c0,0.6,0.5,1.1,1.1,1.1h33.1c0.6,0,1.1-0.5,1.1-1.1v-19.8
		C422.3,332.1,421.8,331.6,421.2,331.6z M417.7,333.8l-13,8.1l-13-8.1H417.7z M389.2,351.5v-16.6l15.4,9.6l15.4-9.6v16.6H389.2z"/>
</g>
<path id="XMLID_356_" d="M31.7,286.4c-0.3,0.3-0.7,0.5-1.2,0.5c-0.4,0-0.8-0.2-1.2-0.5l-7.5-7.5v24.2c0,0.9-0.7,1.7-1.7,1.7
	s-1.7-0.7-1.7-1.7v-24.2l-7.5,7.5c-0.7,0.7-1.7,0.7-2.4,0s-0.7-1.7,0-2.4l10.4-10.3c0.7-0.7,1.7-0.7,2.3,0L31.6,284
	C32.3,284.6,32.3,285.8,31.7,286.4z"/>
<path id="XMLID_341_" d="M74.8,294.4l-9.9,9.9c-0.3,0.3-0.7,0.5-1.1,0.5s-0.8-0.2-1.1-0.5l-9.9-9.9c-0.6-0.6-0.6-1.6,0-2.3
	s1.6-0.6,2.3,0l7.2,7.2v-23.2c0-0.9,0.7-1.6,1.6-1.6s1.6,0.7,1.6,1.6v23.2l7.2-7.2c0.6-0.6,1.6-0.6,2.3,0
	C75.5,292.6,75.5,293.6,74.8,294.4z"/>
<path id="XMLID_546_" d="M123.9,292.1c0,1-0.8,1.7-1.7,1.7H96.9l7.8,7.9c0.7,0.7,0.7,1.8,0,2.5c-0.3,0.3-0.7,0.5-1.2,0.5
	c-0.4,0-0.9-0.2-1.2-0.5l-10.8-10.8c-0.7-0.7-0.7-1.8,0-2.4l10.8-10.8c0.7-0.7,1.8-0.7,2.5,0s0.7,1.8,0,2.5l-7.9,7.8h25.2
	C123.1,290.5,123.9,291.3,123.9,292.1z"/>
<path id="XMLID_512_" d="M-6.9,292.9l-11.3,11.3c-0.4,0.4-0.8,0.5-1.3,0.5s-0.9-0.2-1.3-0.5c-0.7-0.7-0.7-1.9,0-2.6l8.2-8.2H-39
	c-1,0-1.8-0.8-1.8-1.8s0.8-1.8,1.8-1.8h26.4l-8.2-8.2c-0.7-0.7-0.7-1.9,0-2.6s1.9-0.7,2.6,0l11.3,11.3C-6.2,291-6.2,292.1-6.9,292.9
	z"/>
<path d="M342.1,380.5c-10.4,0-18.9,8.4-18.9,18.9c0,10.4,8.4,18.9,18.9,18.9c10.4,0,18.9-8.4,18.9-18.9
	C360.9,388.9,352.5,380.5,342.1,380.5z M342.1,414.9c-8.6,0-15.6-7-15.6-15.6s7-15.6,15.6-15.6s15.6,7,15.6,15.6
	S350.7,414.9,342.1,414.9z M348.3,403.3c0.7,0.7,0.7,1.7,0,2.3c-0.3,0.3-0.7,0.5-1.1,0.5s-0.8-0.2-1.1-0.5l-5.1-5.1
	c-0.3-0.3-0.5-0.7-0.5-1.1v-9.8c0-0.9,0.7-1.6,1.6-1.6s1.6,0.7,1.6,1.6v9.1L348.3,403.3z"/>
<path id="XMLID_275_" d="M314.6,342l-6.3,6.4c-0.4,0.4-0.8,0.5-1.3,0.5s-1-0.2-1.3-0.5l-6.3-6.4c-0.7-0.7-0.7-1.9,0-2.6
	s1.9-0.7,2.6,0l3.5,3.5c-0.5-6.6-5.9-11.8-12.5-11.8c-6.9,0-12.5,5.8-12.5,12.8s5.6,12.7,12.5,12.7c2.5,0,5-0.8,7-2.2
	c0.8-0.6,2-0.4,2.5,0.5s0.4,2-0.5,2.5c-2.7,1.9-5.9,2.9-9.1,2.9c-8.9,0-16.1-7.3-16.1-16.4c0-9,7.2-16.4,16.1-16.4
	c8.4,0,15.3,6.5,16,14.8l2.9-2.9c0.7-0.7,1.9-0.7,2.6,0C315.3,340.1,315.3,341.3,314.6,342z"/>
<path id="XMLID_160_" d="M-15.5,461.6c-5,0-9-4-9-9s4-9,9-9s9,4,9,9C-6.4,457.6-10.5,461.6-15.5,461.6z M-15.5,446.9
	c-3.1,0-5.7,2.6-5.7,5.7s2.6,5.7,5.7,5.7s5.7-2.6,5.7-5.7S-12.3,446.9-15.5,446.9z M-15.5,474.1h-0.2c-1.6,0-3-0.2-3.1-0.2
	c-0.7-0.1-1.3-0.7-1.5-1.4l-0.5-3.4c-1-0.3-2-0.7-3-1.3l-2.6,2c-0.6,0.5-1.4,0.4-2,0c0,0-1.2-0.9-2.3-2.1l-0.2-0.2
	c-1.2-1.2-2-2.3-2.1-2.3c-0.5-0.6-0.5-1.4,0-2l2.1-2.7c-0.5-0.9-0.9-2-1.2-3l-3.3-0.5c-0.7-0.1-1.3-0.7-1.4-1.5c0,0-0.2-1.5-0.2-3.1
	v-0.2c0-1.6,0.2-3,0.2-3.1c0.1-0.7,0.7-1.3,1.4-1.5l3.4-0.5c0.3-1,0.7-2,1.3-3l-2-2.6c-0.5-0.6-0.4-1.4,0-2c0,0,0.9-1.2,2.1-2.3
	l0.2-0.2c1.2-1.2,2.3-2,2.3-2.1c0.6-0.5,1.4-0.5,2,0l2.7,2.1c0.9-0.5,2-0.9,3-1.2l0.5-3.3c0.1-0.7,0.7-1.3,1.5-1.4
	c0,0,1.5-0.2,3.1-0.2h0.2c1.6,0,3,0.2,3.1,0.2c0.7,0.1,1.3,0.7,1.5,1.4l0.5,3.4c1,0.3,2,0.7,3,1.3l2.6-2c0.6-0.5,1.4-0.4,2,0
	c0,0,1.2,0.9,2.3,2.1l0.2,0.2c1.2,1.2,2,2.3,2.1,2.3c0.5,0.6,0.5,1.4,0,2l-2,2.7c0.5,0.9,0.9,2,1.2,3l3.3,0.5
	c0.7,0.1,1.3,0.7,1.4,1.5c0,0,0.2,1.5,0.2,3.1v0.2c0,1.6-0.2,3-0.2,3.1c-0.1,0.7-0.7,1.3-1.4,1.5l-3.4,0.5c-0.3,1-0.7,2-1.3,3l2,2.7
	c0.5,0.6,0.4,1.4,0,2c0,0-0.9,1.2-2.1,2.3l-0.2,0.2c-1.2,1.2-2.3,2-2.3,2.1c-0.6,0.5-1.4,0.5-2,0l-2.7-2.1c-0.9,0.5-2,0.9-3,1.2
	l-0.5,3.3c-0.1,0.7-0.7,1.3-1.5,1.4C-12.4,474-13.8,474.1-15.5,474.1z M-17.2,470.8c0.4,0,0.9,0,1.5,0h0.2c0.5,0,1,0,1.5,0l0.4-3.1
	c0.1-0.7,0.6-1.2,1.3-1.4c1.5-0.3,2.9-0.9,4.1-1.7c0.4-0.2,0.8-0.3,1.3-0.2c0.2,0,0.5,0.2,0.7,0.3l2.5,1.9c0.3-0.3,0.7-0.6,1.1-1
	l0.2-0.2c0.4-0.4,0.7-0.7,1-1.1l-1.9-2.5c-0.4-0.6-0.4-1.3-0.1-1.9c0.8-1.2,1.4-2.6,1.7-4c0.1-0.7,0.7-1.3,1.4-1.4l3.1-0.4
	c0-0.4,0-0.9,0-1.5v-0.2c0-0.5,0-1,0-1.5l-3.1-0.4c-0.7-0.1-1.2-0.6-1.4-1.3c-0.3-1.5-0.9-2.8-1.6-4.1c-0.1-0.1-0.1-0.2-0.2-0.4
	c-0.2-0.5-0.1-1.1,0.2-1.5l1.9-2.5c-0.3-0.3-0.6-0.7-1-1.1l-0.2-0.2c-0.4-0.4-0.7-0.7-1.1-1l-2.5,1.9c-0.6,0.4-1.4,0.4-2,0
	c-1.2-0.7-2.6-1.3-4-1.7c-0.7-0.1-1.2-0.7-1.3-1.4l-0.4-3.1c-0.4,0-0.9,0-1.5,0h-0.2c-0.5,0-1,0-1.5,0l-0.4,3.2
	c-0.1,0.7-0.7,1.3-1.4,1.4c-1.4,0.3-2.8,0.9-4,1.6c-0.4,0.2-0.8,0.3-1.3,0.2c-0.2,0-0.5-0.2-0.7-0.3l-2.4-1.9
	c-0.3,0.3-0.7,0.6-1.1,1l-0.2,0.2c-0.4,0.4-0.7,0.7-1,1.1l1.9,2.5c0.4,0.6,0.4,1.3,0.1,1.9c0,0,0,0.1-0.1,0.1
	c-0.7,1.2-1.3,2.6-1.6,4c-0.1,0.7-0.7,1.2-1.4,1.3l-3.1,0.4c0,0.4,0,0.9,0,1.5v0.2c0,0.5,0,1,0,1.5l3.1,0.4c0.7,0.1,1.3,0.7,1.4,1.4
	l0,0c0.3,1.4,0.9,2.7,1.6,3.9c0.2,0.4,0.3,0.9,0.1,1.4c0,0.2-0.2,0.4-0.3,0.6l-1.8,2.4c0.3,0.3,0.6,0.7,1,1.1l0.2,0.2
	c0.4,0.4,0.7,0.7,1.1,1l2.5-1.9c0.6-0.5,1.5-0.4,2.1,0c1.2,0.7,2.5,1.3,3.9,1.6c0.7,0.1,1.2,0.7,1.3,1.4L-17.2,470.8z"/>
<path id="XMLID_1259_" d="M430.4,274l-3.1-3.2c-0.3-0.3-0.6-0.4-1-0.4l0,0c-0.4,0-0.7,0.1-0.9,0.4l-18.3,18.6
	c-0.1,0.1-0.2,0.3-0.3,0.4l-2.1,5.2c-0.2,0.5-0.1,1.1,0.3,1.4c0.3,0.3,0.6,0.4,0.9,0.4c0.2,0,0.3,0,0.5-0.1l5.2-2.1
	c0.2-0.1,0.3-0.2,0.4-0.3l18.3-18.6C431,275.3,431,274.5,430.4,274z M410.4,292.4l-2.1,0.8l0.8-2.1l17.2-17.5l1.3,1.3L410.4,292.4z
	 M423.8,290.8v17.7c0,1-0.9,1.8-1.8,1.8h-24.9c-1,0-1.8-0.8-1.8-1.8v-33.4c0-1,0.8-1.7,1.8-1.7h18.2c1,0,1.8,0.8,1.8,1.8
	s-0.8,1.8-1.8,1.8h-16.5v29.8h21.5v-15.9c0-1,0.8-1.8,1.8-1.8S423.8,289.8,423.8,290.8z"/>
<path id="XMLID_1226_" d="M177.9,389.5l-10.1-10.2c-0.4-0.4-0.8-0.5-1.3-0.5h-17.3c-1,0-1.8,0.8-1.8,1.8V417c0,1,0.8,1.8,1.8,1.8
	h27.4c1,0,1.8-0.8,1.8-1.8v-26.3C178.4,390.3,178.3,389.8,177.9,389.5z M174.8,391.6h-9.1v-9.1h0.1L174.8,391.6z M151,415.3v-32.9
	h11v10.9c0,1,0.8,1.9,1.8,1.9h11v20.1H151z"/>
<path id="XMLID_1335_" d="M120.7,405.1v11.1c0,1.1-0.9,2-2,2h-31c-1.1,0-2-0.9-2-2v-11.1c0-1.1,0.9-2,2-2s2,0.9,2,2v9.1h26.9v-9.1
	c0-1.1,0.9-2,2-2S120.7,404,120.7,405.1z M101.7,407.6c0.4,0.4,0.9,0.6,1.5,0.6s1.1-0.2,1.5-0.6l8.1-8.3c0.8-0.8,0.8-2.1,0-2.9
	s-2.1-0.8-2.9,0l-4.6,4.8v-17.7c0-1.1-0.9-2-2-2s-2,0.9-2,2v17.7l-4.6-4.7c-0.8-0.8-2.1-0.8-2.9,0s-0.8,2.1,0,2.9L101.7,407.6z"/>
<path id="XMLID_1120_" d="M198.5,334.3v5.9c0,0.7-0.5,1.2-1.2,1.2l0,0c-0.7,0-1.2-0.5-1.2-1.2V337l-6.9,6.9
	c-0.2,0.2-0.5,0.4-0.8,0.4s-0.6-0.1-0.8-0.4c-0.5-0.5-0.5-1.2,0-1.7l6.8-6.9h-3.1c-0.7,0-1.2-0.5-1.2-1.2s0.5-1.2,1.2-1.2h5.9
	c0.3,0,0.6,0.1,0.8,0.4C198.4,333.6,198.5,334,198.5,334.3z M197.3,350.9c-0.7,0-1.2,0.5-1.2,1.2v3.1l-6.8-6.7
	c-0.5-0.5-1.2-0.5-1.7,0s-0.5,1.2,0,1.7l6.7,6.7h-3.1l0,0c-0.7,0-1.2,0.5-1.2,1.2s0.5,1.2,1.2,1.2h5.9l0,0c0.3,0,0.7-0.1,0.9-0.4
	c0.2-0.2,0.4-0.5,0.4-0.8v-5.9C198.5,351.4,198,350.9,197.3,350.9z M181.5,348.4l-6.8,6.8V352c0-0.7-0.5-1.2-1.2-1.2l0,0
	c-0.7,0-1.2,0.5-1.2,1.2v5.9c0,0.3,0.1,0.6,0.4,0.8c0.2,0.2,0.5,0.4,0.9,0.4h5.9c0.7,0,1.2-0.5,1.2-1.2s-0.5-1.2-1.2-1.2h-3.1
	l6.8-6.8c0.5-0.5,0.4-1.2,0-1.7C182.8,347.9,182,347.9,181.5,348.4z M176.5,335.6h3.1l0,0c0.7,0,1.2-0.5,1.2-1.2s-0.5-1.2-1.2-1.2
	h-5.9l0,0c-0.3,0-0.6,0.1-0.8,0.4c-0.2,0.2-0.4,0.5-0.4,0.8v5.9c0,0.7,0.5,1.2,1.2,1.2s1.2-0.5,1.2-1.2v-3.1l6.8,6.8
	c0.2,0.2,0.5,0.4,0.8,0.4s0.6-0.1,0.8-0.4c0.5-0.5,0.5-1.2,0-1.7L176.5,335.6z"/>
<path id="XMLID_725_" d="M41.7,466.9c0,1.1-1,1.9-2,1.9h-0.1c-1.1,0-2-1-1.9-2.1c0.2-5.2-1-9.1-3.7-11.7c-4.3-4-11-3.3-11-3.3
	c-1.1,0.1-2.1-0.7-2.2-1.8c-0.1-1.1,0.7-2.1,1.8-2.2c0.3,0,8.6-0.9,14.2,4.4C40.3,455.5,41.9,460.5,41.7,466.9z M25.8,459.1
	c-1.3,0-2.5,0.5-3.4,1.4s-1.4,2.1-1.4,3.4s0.5,2.5,1.4,3.4s2.1,1.4,3.4,1.4s2.5-0.5,3.4-1.4s1.4-2.1,1.4-3.4s-0.5-2.5-1.4-3.4
	S27,459.1,25.8,459.1z M43.7,444.9c-8.4-7.8-20.7-6.4-21.3-6.4c-1.1,0.1-1.9,1.1-1.8,2.2s1.1,1.9,2.2,1.8c0.1,0,11-1.2,18,5.3
	c4.5,4.1,6.5,10.5,6.1,18.9c0,1.1,0.8,2.1,1.9,2.1h0.1c1.1,0,2-0.8,2-1.9C51.5,457.3,49,449.8,43.7,444.9z"/>
<path id="XMLID_1360_" d="M240.7,385.6h-18.3l-2.3-3.8c-0.4-0.6-1.1-1-1.8-1h-13.6c-1.2,0-2.1,1-2.1,2.1v29.7c0,1.2,1,2.1,2.1,2.1
	h36.1c1.2,0,2.1-1,2.1-2.1v-24.8C242.8,386.6,241.8,385.6,240.7,385.6z M238.6,410.6h-31.9v-25.5H217l2.3,3.8c0.4,0.6,1.1,1,1.8,1
	h17.4L238.6,410.6L238.6,410.6z"/>
<path id="XMLID_1054_" d="M292,381.5c-2.4-2.2-5.9-3.4-9.6-3.4s-7.2,1.2-9.6,3.4c-3,2.7-4.6,6.7-4.6,11.6c0,10.8,12.4,23.5,13,24
	c0.3,0.3,0.8,0.5,1.2,0.5s0.9-0.2,1.2-0.5c0.6-0.5,13-13.2,13-24C296.5,388.1,295,384.1,292,381.5z M282.3,413.4
	c-1.2-1.3-3-3.4-4.8-6c-3.9-5.5-5.9-10.4-5.9-14.2c0-10.7,8.2-11.6,10.7-11.6c10,0,10.7,8.9,10.7,11.6
	C293.1,400.8,285.4,410.1,282.3,413.4z M282.3,385.6c-3.8,0-6.8,3.1-6.8,7s3.1,6.9,6.8,6.9s6.8-3.1,6.8-7S286.1,385.6,282.3,385.6z
	 M282.3,396.5c-2.1,0-3.8-1.8-3.8-4s1.7-4,3.8-4c2.1,0,3.8,1.8,3.8,4S284.5,396.5,282.3,396.5z"/>
<path id="XMLID_1385_" d="M97.6,446.1h-1.1v-2.6c0-5.7-3.8-9.6-9.2-9.6c-5.4,0-9.2,3.9-9.2,9.6v2.6H77c-0.8,0-1.5,0.7-1.5,1.5v19.1
	c0,0.8,0.7,1.5,1.5,1.5h20.7c0.8,0,1.5-0.7,1.5-1.5v-19.1C99.1,446.8,98.4,446.1,97.6,446.1z M81.1,443.5c0-3.9,2.5-6.5,6.1-6.5
	s6.1,2.6,6.1,6.5v2.6H81.1V443.5z M96,465.3H78.4v-16.1H96V465.3z"/>
<path id="XMLID_1396_" d="M149,447.6h-16.6v-2.7c0-3.9,2.5-6.6,6.1-6.6c2.6,0,4.7,1.4,5.6,3.7c0.3,0.8,1.2,1.2,2,0.9
	c0.8-0.3,1.2-1.2,0.9-2c-1.3-3.6-4.6-5.7-8.5-5.7c-5.4,0-9.2,4-9.2,9.7v2.7h-1.2c-0.8,0-1.5,0.7-1.5,1.5v19.3c0,0.8,0.7,1.5,1.5,1.5
	h20.8c0.8,0,1.5-0.7,1.5-1.5v-19.3C150.6,448.3,149.9,447.6,149,447.6z M147.5,466.9h-17.8v-16.2h17.8V466.9z"/>
<path id="XMLID_89_" d="M187.7,469.4c-0.5,0-1-0.2-1.3-0.5c-0.6-0.5-0.9-1.3-0.7-2.1l3-15.2l-1.6,0.9c-1,0.5-2.3,0.2-2.9-0.8
	c-0.5-1-0.2-2.3,0.8-2.9l5.7-3.2c0.7-0.4,1.6-0.4,2.3,0.1s1,1.3,0.9,2.1l-3.1,15.8l2.6-1.1c1.1-0.5,2.3,0,2.8,1.1s0,2.3-1.1,2.8
	l-6.3,2.7C188.3,469.3,188,469.4,187.7,469.4z M193.7,440.3c0.5-0.5,0.9-1.3,0.9-2.1c0-0.8-0.3-1.6-0.9-2.1
	c-0.5-0.5-1.3-0.9-2.1-0.9s-1.6,0.3-2.1,0.9c-0.5,0.5-0.9,1.3-0.9,2.1c0,0.8,0.3,1.6,0.9,2.1c0.5,0.5,1.3,0.9,2.1,0.9
	C192.4,441.1,193.2,440.9,193.7,440.3z"/>
<path id="XMLID_228_" d="M255.9,449.1c0.5,0.5,0.5,1.3,0,1.8l-14.4,14.4c-2.4,2.4-5.1,3.7-7.7,3.7c-0.7,0-1.3-0.1-2-0.3
	c-2.5-0.7-4.5-2.6-5.2-5.3c-0.9-3.3,0.3-6.8,3.2-9.8l16.1-16.1c2.6-2.6,6.2-1.8,8.3,0.3c2.9,2.9,2.1,6.2,0.1,8.2l-16.2,16.2
	c-2.1,2.1-4.6,2-5.8,0.7s-1.4-3.6,0.8-5.8l10.9-10.9c0.5-0.5,1.3-0.5,1.8,0s0.5,1.3,0,1.8l-11,10.9c-0.9,0.9-1.1,1.8-0.8,2.2
	c0.4,0.4,1.3,0.2,2.2-0.7l16.2-16.2c1.6-1.6,0.9-3.5-0.1-4.6c-1.2-1.2-3.2-1.8-4.7-0.3l-16,16.1c-2.3,2.3-3.2,4.9-2.6,7.3
	c0.5,1.7,1.7,3,3.4,3.5c2.2,0.6,4.8-0.4,7.2-2.8l14.4-14.4C254.6,448.6,255.4,448.6,255.9,449.1L255.9,449.1z"/>
<path id="XMLID_2170_" d="M307.9,439.1l-1.1-1.1c-0.7-0.7-1.5-1-2.5-1l0,0c-1,0-1.8,0.4-2.5,1l-22.4,22.4c-0.1,0.1-0.2,0.3-0.3,0.5
	l-2.7,6.7c-0.2,0.5-0.1,1.1,0.3,1.5c0.2,0.3,0.6,0.4,1,0.4c0.2,0,0.4,0,0.5-0.1l6.7-2.6c0.2-0.1,0.4-0.2,0.5-0.3l22.4-22.4
	C309.3,442.8,309.3,440.6,307.9,439.1z M281.6,462.4l2,2l-3.3,1.3L281.6,462.4z M305.9,442.1l-19.6,19.6l-2.1-2.1l19.5-19.6
	c0.2-0.2,0.4-0.2,0.5-0.2s0.3,0,0.5,0.2l1.1,1.1C306.2,441.4,306.2,441.9,305.9,442.1z"/>
<path id="XMLID_1943_" d="M367.2,327.3H330c-1,0-1.8,0.8-1.8,1.8v27.4c0,1,0.8,1.8,1.8,1.8h37.2c1,0,1.8-0.8,1.8-1.8V329
	C369,328.1,368.2,327.3,367.2,327.3z M365.4,330.9v14.8l-3-2.5c-0.7-0.5-1.6-0.5-2.3,0l-4.8,4l-11.1-9.7c-0.7-0.6-1.6-0.6-2.3,0
	l-10.3,8.3v-14.9H365.4z M331.8,354.8v-4.4l11.3-9.2l11.1,9.7c0.7,0.6,1.6,0.6,2.3,0l4.8-4l4.1,3.5v4.4H331.8z M351.3,336.9
	c0-1.8,1.5-3.2,3.3-3.2s3.3,1.5,3.3,3.2s-1.5,3.2-3.3,3.2S351.3,338.6,351.3,336.9z"/>
<path id="XMLID_1952_" d="M6.2,387.1l-4.7,22.4c-0.1,0.7-0.7,1.2-1.4,1.2c-0.1,0-0.2,0-0.3,0c-0.8-0.1-1.3-0.9-1.1-1.7l4.4-21
	l-28.1-5.7l-0.7,3.1c-0.2,0.8-1,1.3-1.8,1.1c-0.8-0.2-1.3-1-1.1-1.8l1-4.6c0.2-0.8,0.9-1.3,1.7-1.1L5,385.3c0.4,0.1,0.7,0.3,0.9,0.6
	C6.2,386.3,6.3,386.6,6.2,387.1z M-2.9,413.8c0,1.1-0.9,2-2,2h-31.8c-1.1,0-2-0.9-2-2v-24c0-1.1,0.9-2,2-2h31.8c1.1,0,2,0.9,2,2
	C-2.9,389.8-2.9,413.8-2.9,413.8z M-34.8,391.8v12.1l8.3-6.7c0.6-0.5,1.7-0.5,2.3,0l9.3,8.2l3.9-3.3c0.6-0.5,1.4-0.5,2,0l1.6,1.7
	v-12L-34.8,391.8L-34.8,391.8z M-7.3,411.9v-3.6l-2.7-2.6l-3.7,3.3c-0.6,0.5-1.6,0.5-2.2,0l-9.4-8.3l-9.3,7.6v3.5h27.3V411.9z
	 M-15.5,399.8c1.7,0,3-1.3,3-3s-1.4-3-3-3c-1.7,0-3,1.3-3,3C-18.5,398.4-17.1,399.8-15.5,399.8z"/>
<path id="XMLID_132_" d="M344,454.1c-1,0-1.8-0.8-1.8-1.8v-15.5c0-1,0.8-1.8,1.8-1.8s1.8,0.8,1.8,1.8v15.5
	C345.8,453.4,345,454.1,344,454.1z M361,454.8c0-6.5-3.6-12.4-9.5-15.3c-0.9-0.4-2-0.1-2.4,0.8s-0.1,2,0.8,2.4
	c4.6,2.3,7.5,7,7.5,12.1c0,7.5-6.1,13.5-13.5,13.5s-13.5-6.1-13.5-13.5c0-5.2,2.9-9.8,7.5-12.2c0.9-0.4,1.3-1.5,0.8-2.4
	c-0.4-0.9-1.5-1.3-2.4-0.8c-5.8,3-9.5,8.8-9.5,15.4c0,9.5,7.6,17.1,17,17.1C353.4,471.9,361,464.3,361,454.8z"/>
<path id="XMLID_1348_" d="M407.6,448.6l-1.2,21.8c0,0.8-0.7,1.4-1.5,1.4h-19.1c-0.8,0-1.5-0.6-1.5-1.4l-1.2-21.8
	c0-0.8,0.6-1.5,1.4-1.6c0.8,0,1.5,0.6,1.6,1.4l1.1,20.3h16.2l1.1-20.3c0-0.8,0.8-1.5,1.6-1.4C407,447.1,407.6,447.8,407.6,448.6z
	 M411.6,443.6c0,0.8-0.7,1.5-1.5,1.5h-29.4c-0.8,0-1.5-0.7-1.5-1.5s0.7-1.5,1.5-1.5h8.3v-3.4c0-0.7,0.5-1.1,1.2-1.1h10.4
	c0.7,0,1.2,0.4,1.2,1.1v3.4h8.3C410.9,442.1,411.6,442.8,411.6,443.6z M391.6,442.1h7.5v-1.9h-7.5V442.1z M392.2,466.6L392.2,466.6
	c0.8,0,1.3-0.7,1.3-1.4l-0.4-16.3c0-0.7-0.6-1.3-1.4-1.3c-0.7,0-1.3,0.6-1.3,1.4l0.4,16.3C390.9,465.9,391.5,466.6,392.2,466.6z
	 M398.5,466.6c0.7,0,1.3-0.6,1.3-1.3l0.4-16.3c0-0.7-0.6-1.4-1.3-1.4c-0.8,0-1.3,0.6-1.4,1.3l-0.4,16.3
	C397.1,465.9,397.7,466.6,398.5,466.6C398.4,466.6,398.4,466.6,398.5,466.6z"/>
<path id="XMLID_1666_" d="M-21.2,489.5c-9.4,0-17.1,7.6-17.1,17.1c0,9.4,7.6,17.1,17.1,17.1s17-7.7,17-17.2
	C-4.2,497.1-11.8,489.5-21.2,489.5z M-19.9,520.6c-0.1,0-0.1,0-0.3,0v-8.1c1.9,0,3.7-0.1,5.3-0.2C-16.3,516.7-18.9,519.6-19.9,520.6
	z M-22.6,520.6c-1-1-3.6-3.9-5-8.2c1.6,0.1,3.3,0.2,5.3,0.2v8.1C-22.4,520.6-22.5,520.6-22.6,520.6z M-35.3,506.5
	c0-0.9,0.1-1.9,0.3-2.7c0.8-0.1,2.4-0.4,4.6-0.6c-0.2,1.1-0.3,2.2-0.3,3.4s0.1,2.3,0.3,3.3c-2.2-0.2-3.7-0.4-4.6-0.6
	C-35.2,508.4-35.3,507.5-35.3,506.5z M-28.5,506.5c0-1.3,0.1-2.4,0.4-3.6c1.7-0.1,3.6-0.2,5.8-0.2v7.6c-2.2,0-4.1-0.1-5.9-0.3
	C-28.4,509-28.5,507.8-28.5,506.5z M-19.9,492.5c1,1,3.6,4,5,8.2c-1.6-0.1-3.3-0.2-5.2-0.2v-8.1C-20,492.5-20,492.5-19.9,492.5z
	 M-22.3,492.5v8.1c-1.9,0-3.7,0.1-5.2,0.2c1.4-4.2,4-7.2,5-8.2C-22.5,492.5-22.4,492.5-22.3,492.5z M-20.1,510.3v-7.6
	c2.2,0,4.1,0.1,5.8,0.2c0.2,1.1,0.4,2.3,0.4,3.6s-0.1,2.4-0.3,3.6C-16,510.1-17.9,510.3-20.1,510.3z M-12,503.1
	c2.2,0.2,3.7,0.4,4.6,0.6c0.2,0.9,0.3,1.8,0.3,2.7s-0.1,1.9-0.3,2.7c-0.8,0.1-2.4,0.4-4.6,0.6c0.2-1.1,0.3-2.2,0.3-3.4
	C-11.7,505.4-11.8,504.1-12,503.1z M-8.1,501.4c-1-0.1-2.5-0.3-4.4-0.5c-0.9-3.2-2.4-5.8-3.7-7.6C-12.5,494.6-9.5,497.6-8.1,501.4z
	 M-26.2,493.3c-1.3,1.8-2.9,4.3-3.7,7.5c-1.9,0.1-3.3,0.4-4.4,0.5C-32.9,497.6-29.9,494.6-26.2,493.3z M-34.4,511.6
	c1,0.1,2.5,0.3,4.4,0.5c0.9,3.2,2.4,5.8,3.7,7.5C-30,518.3-32.9,515.3-34.4,511.6z M-16.2,519.7c1.3-1.8,2.8-4.3,3.7-7.5
	c1.9-0.1,3.3-0.4,4.4-0.5C-9.5,515.3-12.5,518.3-16.2,519.7z"/>
<path id="XMLID_1346_" d="M113.6,508.6v11.5c0,1.2-0.9,2.1-2.1,2.1h-32c-1.2,0-2.1-0.9-2.1-2.1v-11.5c0-1.2,0.9-2.1,2.1-2.1
	s2.1,0.9,2.1,2.1v9.3h27.8v-9.3c0-1.2,0.9-2.1,2.1-2.1S113.6,507.4,113.6,508.6z M88.6,496.4l4.8-4.9v18.2c0,1.2,0.9,2.1,2.1,2.1
	s2.1-0.9,2.1-2.1v-18.2l4.8,4.9c0.4,0.4,1,0.6,1.5,0.6s1.1-0.2,1.5-0.6c0.8-0.8,0.8-2.1,0-3l-8.4-8.6c-0.4-0.4-1-0.6-1.5-0.6
	s-1.1,0.2-1.5,0.6l-8.4,8.6c-0.8,0.8-0.8,2.1,0,3C86.5,497.3,87.8,497.1,88.6,496.4z"/>
<path id="XMLID_1253_" d="M37.1,508c6.3,0,11.5-5.2,11.5-11.6s-5.2-11.6-11.5-11.6s-11.5,5.2-11.5,11.6S30.8,508,37.1,508z
	 M37.1,488.1c4.5,0,8.1,3.6,8.1,8.2s-3.6,8.2-8.1,8.2S29,501,29,496.4S32.7,488.1,37.1,488.1z M42.5,509.1c-0.6-0.2-1.2,0-1.6,0.3
	l-3.7,3.2l-3.7-3.2c-0.5-0.4-1.1-0.5-1.6-0.3c-2.4,0.8-14.4,4.9-14.4,10.9c0,0.9,0.8,1.7,1.7,1.7h36c0.9,0,1.7-0.8,1.7-1.7
	C56.9,514,44.9,509.8,42.5,509.1z M21.7,518.2c1.9-2,6.4-4.2,10.2-5.5l4.1,3.5c0.6,0.6,1.6,0.6,2.2,0l4.1-3.5
	c3.8,1.3,8.3,3.6,10.2,5.5H21.7z"/>
<path id="XMLID_85_" d="M156.7,506.6v-15.8c0-1.9-1.3-3.4-2.8-3.4c-1.6,0-2.8,1.5-2.8,3.4v15.8c0,1.9,1.3,3.4,2.8,3.4
	C155.5,510.1,156.7,508.6,156.7,506.6z M156.4,518.9c0.6-0.6,1.1-1.6,1.1-2.5c0-0.9-0.4-1.8-1.1-2.5c-0.6-0.6-1.6-1.1-2.5-1.1
	s-1.8,0.4-2.5,1.1c-0.6,0.6-1.1,1.6-1.1,2.5c0,0.9,0.4,1.8,1.1,2.5c0.6,0.6,1.6,1.1,2.5,1.1C154.8,519.9,155.7,519.6,156.4,518.9z"
	/>
</svg>
