<?xml version="1.0" encoding="utf-8"?>
<!-- Generator: Adobe Illustrator 19.0.0, SVG Export Plug-In . SVG Version: 6.00 Build 0)  -->
<svg version="1.1" id="Livello_1" xmlns="http://www.w3.org/2000/svg" xmlns:xlink="http://www.w3.org/1999/xlink" x="0px" y="0px"
	 viewBox="0 0 960 560" style="enable-background:new 0 0 960 560;" xml:space="preserve">
<style type="text/css">
	.st0{fill:#1CB1E6;}
	.st1{fill:#2A5B83;}
	.st2{fill:#24A9E6;}
	.st3{fill:#187FB8;}
	.st4{fill:#1A70F9;}
	.st5{fill:#E64C87;}
	.st6{fill:#43619C;}
	.st7{fill:#F24033;}
</style>
<g id="_x30_3-SINGLE-COLOR">
	<path id="Vimeo_4_" class="st0" d="M945.1,265c-5.1-0.2-8.5,2.7-10.4,8.5c0.9-0.4,1.8-0.6,2.7-0.6c1.9,0,2.7,1,2.5,3.1
		c-0.1,1.3-0.9,3.1-2.5,5.5c-1.5,2.4-2.7,3.6-3.5,3.6c-1,0-1.9-1.8-2.7-5.5c-0.3-1.1-0.8-3.8-1.5-8.3c-0.7-4.1-2.4-6-5.3-5.8
		c-1.2,0.1-3,1.2-5.4,3.3c-1.8,1.6-3.5,3.1-5.3,4.7l1.7,2.2c1.6-1.1,2.6-1.7,2.9-1.7c1.3,0,2.4,2,3.5,5.9c1,3.6,2,7.2,3,10.7
		c1.5,3.9,3.3,5.8,5.4,5.8c3.5,0,7.7-3.2,12.7-9.6c4.8-6.1,7.3-10.9,7.5-14.5C950.7,267.6,948.9,265.2,945.1,265z"/>
	<path id="Instagram_4_" class="st1" d="M817.1,262.1h-27.9c-2.4,0-4.4,1.9-4.4,4.3v28c0,2.4,2,4.3,4.4,4.3h27.9
		c2.4,0,4.4-1.9,4.4-4.3v-28C821.4,264.1,819.5,262.1,817.1,262.1z M811.1,267.9c0-0.6,0.5-1.1,1.1-1.1h3.4c0.6,0,1.1,0.5,1.1,1.1
		v3.4c0,0.6-0.5,1.1-1.1,1.1h-3.4c-0.6,0-1.1-0.5-1.1-1.1V267.9z M803.1,273.5c3.9,0,7.1,3.1,7.1,7s-3.2,7-7.1,7c-3.9,0-7-3.1-7-7
		S799.2,273.5,803.1,273.5z M818,294.2c0,0.6-0.5,1.1-1.1,1.1h-27.5c-0.6,0-1.1-0.5-1.1-1.1V277h4.6c-0.6,0.9-0.8,2.5-0.8,3.5
		c0,6.1,5,11.1,11.2,11.1s11.2-5,11.2-11.1c0-1-0.1-2.6-0.9-3.5h4.6v17.2H818z"/>
	<path id="Twitter_4_" class="st2" d="M692.4,265.3c-1.5,0.9-3.1,1.6-4.9,1.9c-1.4-1.5-3.4-2.5-5.6-2.5c-4.2,0-7.7,3.5-7.7,7.9
		c0,0.6,0.1,1.2,0.2,1.8c-6.4-0.3-12-3.5-15.8-8.2c-0.7,1.2-1,2.5-1,4c0,2.7,1.4,5.1,3.4,6.6c-1.3,0-2.4-0.4-3.5-1v0.1
		c0,3.8,2.6,7,6.2,7.7c-0.6,0.2-1.3,0.3-2,0.3c-0.5,0-1,0-1.4-0.1c1,3.1,3.8,5.4,7.2,5.5c-2.6,2.1-5.9,3.4-9.5,3.4
		c-0.6,0-1.2,0-1.8-0.1c3.4,2.2,7.4,3.5,11.8,3.5c14.1,0,21.9-12,21.9-22.4c0-0.3,0-0.7,0-1c1.5-1.1,2.8-2.5,3.8-4.1
		c-1.4,0.6-2.9,1.1-4.4,1.2C690.6,268.7,691.8,267.2,692.4,265.3z"/>
	<g id="LinkedIn_4_">
		<rect x="529.3" y="274.8" class="st3" width="7.2" height="22.8"/>
		<path class="st3" d="M556.1,274.6c-4.1,0-6.7,2.2-7.2,3.8v-3.6h-8.1c0.1,1.9,0,22.8,0,22.8h8.1v-12.3c0-0.7,0-1.4,0.2-1.9
			c0.6-1.4,1.7-2.8,3.9-2.8c2.8,0,4.1,2.1,4.1,5.2v11.8h8.2v-12.7C565.2,277.9,561.2,274.6,556.1,274.6z"/>
		<path class="st3" d="M532.7,264.1c-2.7,0-4.4,1.7-4.4,4c0,2.2,1.7,3.9,4.3,3.9h0.1c2.7,0,4.4-1.7,4.4-4
			C537,265.8,535.4,264.1,532.7,264.1z"/>
	</g>
	<g id="Behance_4_">
		<path class="st4" d="M414.4,279.5c0.8-0.4,1.3-0.8,1.7-1.3c0.7-0.8,1-1.9,1-3.3c0-1.3-0.3-2.5-1-3.4c-1.2-1.5-3.1-2.3-5.9-2.4
			h-10.9v22.3h10.2c1.2,0,2.2-0.1,3.2-0.3c1-0.2,1.8-0.6,2.6-1.1c0.6-0.5,1.2-1.1,1.6-1.8c0.7-1,1-2.2,1-3.6c0-1.3-0.3-2.4-0.9-3.3
			C416.4,280.6,415.6,279.9,414.4,279.5z M403.9,273.1h4.9c1.1,0,2,0.1,2.7,0.3c0.8,0.3,1.2,1,1.2,2.1c0,0.9-0.3,1.6-0.9,2
			c-0.6,0.4-1.4,0.6-2.4,0.6h-5.5V273.1z M411.7,287.2c-0.5,0.3-1.3,0.4-2.3,0.4h-5.5v-6h5.6c1,0,1.7,0.1,2.3,0.4
			c1,0.4,1.4,1.2,1.4,2.4C413.1,285.8,412.6,286.8,411.7,287.2z"/>
		<rect x="422.8" y="270.2" class="st4" width="9.7" height="2.8"/>
		<path class="st4" d="M434.5,277.8c-0.8-1.1-1.7-1.9-2.9-2.4s-2.5-0.8-3.9-0.8c-2.5,0-4.4,0.8-6,2.3c-1.5,1.5-2.3,3.7-2.3,6.6
			c0,3.1,0.8,5.3,2.6,6.6c1.7,1.4,3.7,2,5.9,2c2.7,0,4.8-0.8,6.3-2.4c1-1,1.5-2,1.6-3h-4.5c-0.3,0.5-0.6,0.9-0.9,1.1
			c-0.6,0.5-1.4,0.8-2.4,0.8c-0.9,0-1.7-0.2-2.4-0.6c-1.1-0.7-1.7-1.8-1.8-3.5H436c0-1.4,0-2.5-0.1-3.3
			C435.6,279.9,435.2,278.8,434.5,277.8z M423.9,281.6c0.2-1.1,0.5-1.9,1.2-2.6c0.6-0.6,1.5-0.9,2.6-0.9c1,0,1.9,0.3,2.6,0.9
			c0.7,0.6,1.1,1.5,1.2,2.6H423.9z"/>
	</g>
	<path id="Dribbble_4_" class="st5" d="M306,273.3c-0.5-1.1-1-2.1-1.7-3.1s-1.4-1.9-2.2-2.7c-0.8-0.8-1.7-1.6-2.7-2.2
		c-1-0.7-2-1.2-3.1-1.7s-2.3-0.8-3.4-1.1c-1.2-0.2-2.4-0.4-3.7-0.4c-1.2,0-2.5,0.1-3.7,0.4c-1.2,0.2-2.3,0.6-3.4,1.1s-2.1,1-3.1,1.7
		s-1.9,1.4-2.7,2.2c-0.8,0.8-1.6,1.7-2.2,2.7c-0.7,1-1.2,2-1.7,3.1s-0.8,2.3-1.1,3.4c-0.2,1.2-0.4,2.4-0.4,3.7
		c0,1.2,0.1,2.5,0.4,3.7c0.2,1.2,0.6,2.3,1.1,3.4s1,2.1,1.7,3.1s1.4,1.9,2.2,2.7c0.8,0.8,1.7,1.6,2.7,2.2c1,0.7,2,1.2,3.1,1.7
		s2.3,0.8,3.4,1.1c1.2,0.3,2.4,0.4,3.7,0.4c1.2,0,2.5-0.1,3.7-0.4c1.2-0.2,2.3-0.6,3.4-1.1s2.1-1,3.1-1.7s1.9-1.4,2.7-2.2
		c0.8-0.8,1.6-1.7,2.2-2.7c0.7-1,1.2-2,1.7-3.1s0.8-2.3,1.1-3.4c0.2-1.2,0.4-2.4,0.4-3.7c0-1.2-0.1-2.5-0.4-3.7
		C306.8,275.6,306.5,274.4,306,273.3z M289.1,264.8c4,0,7.6,1.5,10.3,3.9c0,0.1-2.3,3.5-8.2,5.7c-2.7-4.9-5.6-8.8-5.9-9.1
		C286.6,265,287.9,264.8,289.1,264.8z M285.4,265.2C285.4,265.3,285.4,265.3,285.4,265.2C285.4,265.3,285.4,265.3,285.4,265.2
		C285.3,265.3,285.4,265.3,285.4,265.2z M282.4,266.3c0.2,0.3,3.1,4.2,5.8,9c-7.5,2-14,1.9-14.5,1.9
		C274.8,272.4,278.1,268.4,282.4,266.3z M277.5,290.9c-2.5-2.8-4-6.4-4-10.5c0-0.2,0-0.3,0-0.5c0.3,0,8,0.2,16.1-2.2
		c0.4,0.9,0.9,1.8,1.3,2.7c-0.2,0.1-0.4,0.1-0.6,0.2C281.8,283.3,277.5,290.9,277.5,290.9L277.5,290.9z M289.1,296.1
		c-3.7,0-7.1-1.3-9.8-3.4c-0.1,0-0.1-0.1-0.2-0.2c0.1,0.1,0.1,0.1,0.2,0.2s0.2,0.1,0.2,0.1s3-6.5,12.3-9.8h0.1
		c2.2,5.7,3.1,10.5,3.3,11.9C293.4,295.7,291.3,296.1,289.1,296.1z M297.9,293.4c-0.2-0.9-1-5.5-3-11.2c5.1-0.8,9.4,0.6,9.8,0.7
		C303.9,287.3,301.4,291.1,297.9,293.4z M293.9,279.8c-0.1-0.3-0.2-0.5-0.3-0.8c-0.3-0.8-0.7-1.5-1-2.3c6.2-2.5,8.7-6.2,8.7-6.2
		c2.2,2.7,3.5,6.1,3.6,9.8C304.6,280.2,299.3,279.1,293.9,279.8z"/>
	<path id="Facebook_3_" class="st6" d="M178.7,296.6c0,1.1-0.9,2-2,2h-9.4v-14.2h4.8l0.7-5.5h-5.5v-3.5c0-1.6,0.4-2.7,2.7-2.7h2.9
		v-5c-0.5-0.1-2.2-0.2-4.3-0.2c-4.2,0-7.1,2.6-7.1,7.3v4.1h-4.8v5.5h4.8v14.2h-17.6c-1.1,0-2-0.9-2-2V264c0-1.1,0.9-2,2-2h32.7
		c1.1,0,2,0.9,2,2L178.7,296.6L178.7,296.6z"/>
	<g id="Google_x2B__1_">
		<path class="st7" d="M23.4,278.2v5.1c0,0,4.9,0,6.9,0c-1.1,3.3-2.8,5.1-6.9,5.1c-4.2,0-7.5-3.4-7.5-7.6s3.3-7.6,7.5-7.6
			c2.2,0,3.7,0.8,5,1.9c1.1-1.1,1-1.2,3.6-3.7c-2.3-2.1-5.3-3.3-8.6-3.3c-7.1,0-12.8,5.7-12.8,12.8c0,7.1,5.7,12.8,12.8,12.8
			c10.6,0,13.2-9.2,12.3-15.4L23.4,278.2L23.4,278.2z"/>
		<polygon class="st7" points="46.5,278.5 46.5,274 43.4,274 43.4,278.5 38.8,278.5 38.8,281.6 43.4,281.6 43.4,286.2 46.5,286.2 
			46.5,281.6 51,281.6 51,278.5 		"/>
	</g>
</g>
</svg>
